<svg xmlns="http://www.w3.org/2000/svg" height="1024" preserveAspectRatio="none" style="display: block;" version="1.1" viewBox="0 0 2048 2048" width="1024">
<path d="M 0 0 L 2048 0 L 2048 2048 L 0 2048 L 0 0 z" fill="rgb(254,254,254)" transform="translate(0,0)"></path>
<path d="M 758.462 415.479 L 1070.01 415.191 C 1123.58 415.2 1177.15 414.857 1230.72 415.102 C 1235.04 415.121 1240.86 415.381 1244.52 417.648 C 1267.42 431.831 1289.38 448.571 1311.07 464.474 L 1407.08 533.81 L 1476.14 582.69 C 1524.29 616.93 1523.73 609.561 1523.66 668.676 L 1523.67 736.379 L 1523.9 975.096 L 1626.95 974.905 C 1646.78 974.865 1678.88 971.192 1694.7 983.175 C 1715.11 998.64 1703.37 1030.32 1698.98 1051.46 C 1691.37 1088.19 1683.45 1124.86 1675.21 1161.45 L 1612.69 1444.79 C 1600.67 1499.15 1589.15 1553.59 1575.93 1607.68 C 1568.44 1638.31 1538.99 1633.36 1514.17 1633.38 L 1459.83 1633.41 L 1279.5 1633.45 L 748.502 1633.45 L 583.224 1633.56 L 530.822 1633.73 C 506.661 1633.8 476.867 1637.27 469.506 1607.17 C 455.275 1549 444.539 1489.64 432.663 1431.01 L 373.851 1141.52 L 344.804 996.623 C 341.008 977.601 335.137 954.5 333.132 936.545 C 330.54 913.334 356.209 899.919 376.411 902.655 C 384.797 903.791 400.846 902.673 409.651 902.674 L 511.126 902.355 L 510.946 717.966 L 510.834 663.149 C 510.82 652.61 510.585 641.723 511.687 631.238 C 512.661 621.069 526.884 605.898 537.204 604.609 C 555.743 602.294 578.958 603.274 597.733 603.318 L 715.207 603.306 L 715.162 500.978 C 715.161 497.318 715.033 493.502 715.16 489.844 C 716.491 451.69 706.449 416.844 758.462 415.479 z" fill="rgb(25,59,91)" transform="translate(0,0)"></path>
<path d="M 707.914 673.496 C 709.61 673.489 714.677 673.044 714.778 675.526 C 715.555 694.462 715.129 714.499 715.081 733.451 L 715.024 931.767 L 714.945 982.569 C 714.915 993.273 714.012 1005.72 715.841 1016.17 C 722.277 1052.93 752.034 1048.29 778.697 1048.25 L 834.747 1048.2 L 1014.98 1048.14 L 1626.02 1047 C 1603.18 1156.56 1579.38 1265.91 1554.62 1375.05 C 1540.13 1436.74 1526.41 1498.61 1513.46 1560.64 L 1497.75 1560.72 L 583.13 1560.29 L 582.123 673.979 C 623.773 673.274 666.206 673.588 707.914 673.496 z" fill="rgb(254,254,254)" transform="translate(0,0)"></path>
<path d="M 786.552 487.386 L 1147.78 487.324 L 1147.76 588.268 C 1147.81 606.166 1146.93 625.507 1149.53 643.149 C 1151.21 654.543 1164.33 668.188 1176.18 668.966 C 1200.74 670.579 1225.87 669.269 1250.64 669.415 L 1451.84 669.802 L 1451.98 869.52 C 1451.99 905.233 1452.61 942.675 1451.84 978.277 L 786.863 978.332 C 785.908 814.685 785.804 651.034 786.552 487.386 z" fill="rgb(254,254,254)" transform="translate(0,0)"></path>
<path d="M 929.746 847.153 C 1004.82 846.301 1081.73 847.275 1156.98 847.203 L 1240.93 847.062 C 1256.72 847.025 1288.27 844.339 1301 852.039 C 1309.42 857.169 1315.43 865.45 1317.7 875.037 C 1319.89 884.184 1318.25 893.829 1313.14 901.73 C 1307.05 911.042 1297.93 915.83 1287.27 917.849 C 1265.56 918.498 1241.24 917.986 1219.38 917.995 L 1088.56 917.987 C 1054.5 918.025 1020.44 917.884 986.373 917.564 C 968.596 917.464 951.003 917.719 933.219 917.131 C 917.055 916.596 905.699 907.109 901.404 891.414 C 898.931 882.038 900.304 872.063 905.219 863.704 C 910.947 854.011 919.248 849.748 929.746 847.153 z" fill="rgb(25,59,91)" transform="translate(0,0)"></path>
<path d="M 927.866 714.121 C 957.625 712.396 995.624 714.604 1026.51 713.904 C 1060.1 714.05 1092.97 713.526 1126.64 714.167 C 1155.74 714.72 1168.92 736.986 1159.19 763.771 C 1155.69 773.418 1144.89 778.91 1135.95 782.373 C 1129.87 783.328 1114.09 782.987 1107.31 782.997 L 1056.6 783.043 L 979.193 783.065 C 965.169 783.06 924.867 784.902 915.232 777.898 C 889.728 759.36 896.491 722.063 927.866 714.121 z" fill="rgb(25,59,91)" transform="translate(0,0)"></path>
<path d="M 412.977 972.045 C 445.606 971.809 478.237 971.795 510.867 972.003 C 511.225 990.083 511.312 1009.23 510.952 1027.28 C 508.105 1170.17 515.02 1315.76 510.847 1458.27 C 506.009 1440.2 501.3 1411.34 497.348 1391.82 L 474.242 1280.26 C 452.859 1177.72 432.437 1074.97 412.977 972.045 z" fill="rgb(254,254,254)" transform="translate(0,0)"></path>
<path d="M 1219.17 488.502 C 1232 495.131 1270.13 524.541 1283.37 534.285 C 1312.17 555.466 1343.16 576.577 1371.66 597.882 C 1320.75 597.624 1269.83 597.691 1218.91 598.083 C 1218.99 561.608 1218.71 524.948 1219.17 488.502 z" fill="rgb(254,254,254)" transform="translate(0,0)"></path>
<metadata><recraft-signature>{"signed_by": "recraft", "signature_b64": "AevfjPjEkUxoNtra1V1ipEDO4LbcUW3JI7jm5KVoTco7YblIZ5JTAZ9BC2M7mgS0lppdbk4N31AqzybdsyZ1BA==", "signing_algo": "Ed25519", "generation_timestamp": 1777287726, "identifier": "2e502bc6-5a6e-4002-a225-03cadd45121f"}</recraft-signature></metadata></svg>