<svg xmlns="http://www.w3.org/2000/svg" height="1024" preserveAspectRatio="none" style="display: block;" version="1.1" viewBox="0 0 2048 2048" width="1024">
<path d="M 0 0 L 2048 0 L 2048 2048 L 0 2048 L 0 0 z" fill="rgb(255,255,255)" transform="translate(0,0)"></path>
<path d="M 839.325 439.526 C 880.574 438.216 879.531 447 904.904 476.354 L 965.901 547.577 C 974.979 558.131 984.888 570.623 994.511 580.319 L 995.801 581.608 C 1035.22 582.759 1079.51 581.718 1119.33 581.734 L 1392.23 581.356 L 1486.93 581.347 C 1504.28 581.353 1523.03 580.776 1540.27 582.365 C 1554.79 583.704 1569.13 597.921 1570.95 612.658 C 1573.31 631.804 1572.35 652.376 1572.31 671.894 L 1572.1 782.181 C 1591.75 782.067 1656.88 780.323 1672.23 784.123 C 1683.37 786.968 1693.67 792.409 1702.3 800.002 C 1723.33 818.346 1730.19 844.738 1725.8 871.429 C 1722.93 888.884 1721.08 907.432 1718.95 925.08 L 1692.18 1133.04 L 1658.36 1401.52 C 1653.73 1441.56 1648.76 1481.57 1643.45 1521.54 C 1641.15 1539.21 1639.3 1557.12 1636.63 1574.7 C 1635.11 1583.69 1632.45 1591.07 1626.19 1597.81 C 1613.04 1611.99 1595.56 1609.4 1578.18 1609.56 C 1572.25 1609.61 1566.19 1609.52 1560.2 1609.49 L 1479.57 1609.24 L 1203.75 1609.25 L 690.65 1609.2 L 523.793 1609.17 L 473.163 1609.05 C 456.896 1609 438.433 1611.5 425.459 1599.54 C 410.83 1586.05 411.972 1560.84 409.344 1541.44 C 404.956 1510.88 400.914 1480.26 397.221 1449.61 L 363.937 1198.14 L 334.587 972.989 L 323.709 896.781 C 318.725 861.308 312.967 832.989 341.844 803.99 C 367.568 778.156 394.28 780.361 428.091 780.517 L 476.914 780.513 L 477.777 569.651 L 477.654 504.909 C 477.546 482.317 471.877 445.677 504.799 440.359 C 516.517 438.467 532.384 439.516 544.505 439.559 L 609.856 439.672 L 839.325 439.526 z" fill="#1A2332" transform="translate(0,0)"></path>
<path d="M 1606.3 851.5 C 1617.8 851.519 1645.22 849.047 1653.5 855.12 C 1656.16 859.01 1646.94 924.895 1645.86 933.896 L 1623 1111.83 L 1568.54 1537.01 L 479.402 1538.11 C 478.049 1525.69 476.494 1513.29 474.739 1500.92 L 415.478 1051.48 L 397.654 921.642 C 394.664 899.828 390.508 874.069 388.632 852.63 C 403.397 851.622 423.92 852.038 439.03 852.031 L 522.002 852.039 L 776.06 851.985 L 1606.3 851.5 z" fill="rgb(255,255,255)" transform="translate(0,0)"></path>
<path d="M 792.332 957.502 L 1167.37 957.314 L 1287.5 957.555 C 1307.39 957.628 1327.46 957.077 1347.3 958.177 C 1380.47 960.015 1378.52 987.868 1378.6 1012.47 L 1378.87 1299.58 L 1378.95 1384.84 C 1378.96 1417.65 1385.72 1455.23 1335.12 1452.66 C 1329.29 1452.37 1321.19 1452.47 1315.22 1452.41 C 1294.65 1452.21 1274.07 1452.13 1253.5 1452.17 L 875.328 1452.37 L 758.924 1452.65 C 740.686 1452.65 722.554 1452.97 704.315 1452.38 C 682.26 1451.66 669.01 1436.77 668.914 1414.83 C 668.762 1380.24 668.959 1345.6 668.997 1310.99 L 668.862 1132.65 L 668.885 1033.64 C 668.896 1017.8 668.643 1000.97 669.427 985.156 C 670.214 979.396 674.026 971.148 678.281 967.162 C 691.984 954.323 716.716 957.372 734.442 957.436 L 792.332 957.502 z" fill="#1A2332" transform="translate(0,0)"></path>
<path d="M 738.97 1026.28 C 803.748 1024.92 872.556 1026.01 937.684 1026.07 L 1230.73 1026.35 C 1254.32 1026.32 1285.04 1025.46 1308.25 1026.85 L 1308.52 1276.94 C 1308.53 1311.56 1309.08 1347.37 1308.59 1381.88 L 948.979 1381.95 L 739.898 1382.16 C 737.476 1344.14 738.954 1290.95 738.988 1251.95 L 738.97 1026.28 z" fill="rgb(255,255,255)" transform="translate(0,0)"></path>
<path d="M 1064.09 1099.47 C 1109.94 1098.4 1164.97 1098.92 1210.67 1100.52 C 1245.52 1101.73 1251.38 1166.76 1205.25 1168.95 C 1156.61 1168.33 1104.81 1169.98 1056.55 1167.94 C 1024.11 1166.56 1009.47 1102.08 1064.09 1099.47 z" fill="#1A2332" transform="translate(0,0)"></path>
<path d="M 1061.5 1240.44 C 1107.75 1239.68 1154.57 1241.64 1200.84 1240.84 C 1247.88 1240.03 1251.57 1304.33 1204.97 1309.78 C 1156.6 1310.35 1106.59 1309.88 1058.27 1309.26 C 1022.74 1308.81 1011.77 1244.69 1061.5 1240.44 z" fill="#1A2332" transform="translate(0,0)"></path>
<path d="M 547.41 510.38 C 580.304 509.057 620.221 509.883 653.505 509.878 L 840.748 509.918 C 846.574 517.83 855.02 526.802 861.515 534.424 L 902.982 583.102 C 919.266 601.923 935.616 621.185 951.937 639.923 C 958.76 647.757 963.631 649.961 973.922 650.661 C 990.973 651.822 1009.99 651.316 1027.2 651.287 L 1125.87 651.221 C 1250.17 650.568 1374.47 650.797 1498.76 651.908 C 1499.41 694.226 1498.79 738.461 1498.86 780.978 L 547.931 780.835 L 547.41 510.38 z" fill="rgb(255,255,255)" transform="translate(0,0)"></path>
<metadata><recraft-signature>{"signed_by": "recraft", "signature_b64": "PidKK00DPkjAYvINzvGAhbqCzT1ZsPg2gZpgxQTkpfl9Ix089Y95pX5q7x7tBPCiYiC+QwZp7v3/NSFKZqsnCA==", "signing_algo": "Ed25519", "generation_timestamp": 1777222252, "identifier": "17c925d4-efc0-4e77-acea-08bd086666cb"}</recraft-signature></metadata></svg>