<svg xmlns="http://www.w3.org/2000/svg" height="1024" preserveAspectRatio="none" style="display: block;" version="1.1" viewBox="0 0 2048 2048" width="1024">
<path d="M 0 0 L 2048 0 L 2048 2048 L 0 2048 L 0 0 z" fill="rgb(254,254,254)" transform="translate(0,0)"></path>
<path d="M 543.033 349.436 L 803.318 349.933 L 883.365 349.85 C 900.58 349.833 934.563 346.123 946.705 358.839 C 958.322 371.005 970.628 386.029 981.676 399.036 C 1003.51 424.844 1025.64 450.395 1048.07 475.682 C 1094.63 477.119 1147.49 475.721 1194.6 475.515 L 1472.16 475.02 C 1493.09 475.107 1507.82 478.159 1523.03 494.043 C 1529.6 500.839 1534.3 509.218 1536.67 518.366 C 1540.57 533.1 1538.95 583.621 1538.83 601.878 C 1559.18 602.038 1618.8 600.129 1634.65 604.445 C 1644.69 607.231 1653.86 612.501 1661.32 619.771 C 1671.41 629.462 1681.34 647.651 1679.78 661.227 C 1671.56 732.691 1659.41 806.648 1649.1 877.638 L 1615.79 1106.34 L 1604.3 1181.46 C 1599.89 1211.6 1599.23 1248.28 1576.98 1270.8 C 1567.43 1280.34 1555.17 1286.68 1541.86 1288.95 C 1531.42 1290.64 1504.96 1290.01 1492.79 1290.01 L 1401.9 1290.02 L 1057.22 1289.93 L 1057.21 1494.87 C 1089.16 1505 1109.53 1525.44 1121.09 1556.58 L 1396.89 1556.54 L 1481.93 1556.55 C 1498.52 1556.56 1515.23 1556.07 1531.74 1557.4 C 1569.13 1560.39 1572.54 1618.06 1535.08 1624.75 C 1523.27 1626.86 1510.49 1626.08 1498.47 1626.06 L 1441.5 1625.91 L 1121.68 1626.07 C 1119.92 1630.8 1118.12 1635.68 1116.07 1640.29 C 1094.08 1689.71 1029.21 1711.34 980.971 1688.3 C 952.243 1674.59 936.888 1655.37 926.101 1626.2 C 892.693 1625.41 856.43 1625.98 822.915 1625.98 L 635.722 1625.97 L 559.819 1626.1 C 532.668 1626.16 489.032 1632.7 488.215 1592.71 C 487.348 1550.26 535.255 1556.75 563.675 1556.68 L 646.444 1556.59 L 926.52 1556.75 C 937.702 1527.92 958.074 1505.13 988.451 1496.09 C 989.082 1427.33 989.143 1358.58 988.632 1289.82 C 881.604 1290.5 774.571 1290.45 667.544 1289.66 L 562.84 1289.82 C 545.612 1289.83 525.072 1290.75 508.247 1288.91 C 482.05 1286.04 458.52 1261.71 453.357 1236.23 C 448.626 1212.89 445.825 1188.35 442.058 1164.51 L 413.805 974.086 C 402.995 906.224 392.824 838.262 383.294 770.209 C 379.612 746.526 376.155 722.809 372.923 699.061 C 368.935 668.918 363.037 644.704 386.731 620.73 C 408.459 598.744 433.907 601.93 462.281 602.069 L 508.983 602.1 C 508.971 555.632 509.775 508.835 509.436 462.472 L 509.009 409.865 C 508.787 382.639 506.155 352.936 543.033 349.436 z" fill="rgb(31,49,70)" transform="translate(0,0)"></path>
<path d="M 534.879 671.507 L 1609.44 670.965 L 1555.71 1031.2 C 1546.88 1094.68 1537.15 1158.02 1526.52 1221.22 L 1511.75 1221.18 L 786.975 1221.35 C 699.025 1221.33 609.323 1222.71 521.545 1221.64 C 517.417 1203.75 513.735 1173.6 510.852 1154.63 L 490.416 1016.39 C 477.455 933.238 464.975 850.009 452.977 766.709 C 448.371 735.609 442.61 702.948 438.53 671.968 L 534.879 671.507 z" fill="rgb(254,254,254)" transform="translate(0,0)"></path>
<path d="M 1011.9 1004.34 C 1013.76 1004.12 1015.63 1003.96 1017.5 1003.88 C 1043.27 1002.58 1069.64 1011.06 1089.27 1028.59 C 1112.39 1049.24 1123.64 1084.75 1099.28 1109.83 C 1082.06 1127.57 1060.4 1125.6 1037.5 1125.41 C 1001.34 1125.04 943.023 1135.09 935.174 1085.42 C 928.118 1040.77 972.133 1009.93 1011.9 1004.34 z" fill="rgb(31,49,70)" transform="translate(0,0)"></path>
<path d="M 1270.46 1003.36 C 1296.26 1001.7 1321.64 1010.46 1340.91 1027.68 C 1364.31 1048.48 1378.3 1082.76 1353.82 1109.32 C 1336.08 1128.58 1307.81 1124.95 1283.75 1124.91 C 1259.91 1125.13 1224.59 1129.5 1205.23 1114.02 C 1182.16 1095.57 1182.87 1061.24 1201.38 1039.59 C 1220.14 1017.65 1241.6 1006.36 1270.46 1003.36 z" fill="rgb(31,49,70)" transform="translate(0,0)"></path>
<path d="M 760.199 1004.35 C 801.417 999.586 859.008 1030.36 859.235 1076.06 C 859.369 1088.69 854.32 1100.81 845.267 1109.62 C 827.793 1126.88 806.354 1125.54 783.919 1125.63 C 758.082 1125.76 721.568 1129.8 701.313 1114.81 C 690.913 1107.24 684.172 1095.65 682.737 1082.87 C 677.829 1040.01 722.017 1009.13 760.199 1004.35 z" fill="rgb(31,49,70)" transform="translate(0,0)"></path>
<path d="M 1012.98 868.983 C 1044.9 863.104 1075.53 884.305 1081.26 916.259 C 1087 948.214 1065.66 978.742 1033.68 984.336 C 1001.9 989.895 971.61 968.721 965.909 936.967 C 960.209 905.213 981.248 874.825 1012.98 868.983 z" fill="rgb(31,49,70)" transform="translate(0,0)"></path>
<path d="M 1268.43 868.751 C 1300.55 863.688 1330.64 885.796 1335.4 917.966 C 1340.17 950.136 1317.78 980.017 1285.57 984.485 C 1253.78 988.894 1224.37 966.862 1219.67 935.111 C 1214.96 903.359 1236.72 873.748 1268.43 868.751 z" fill="rgb(31,49,70)" transform="translate(0,0)"></path>
<path d="M 759.904 869.814 C 791.64 863.873 822.149 884.894 827.902 916.664 C 833.656 948.434 812.457 978.818 780.653 984.385 C 749.113 989.905 719.035 968.92 713.329 937.413 C 707.623 905.906 728.431 875.705 759.904 869.814 z" fill="rgb(31,49,70)" transform="translate(0,0)"></path>
<path d="M 577.978 417.949 C 614.662 417.206 653.774 417.869 690.744 417.868 L 906.756 418.114 C 941.638 453.487 971.63 494.219 1005.61 530.535 C 1022.08 548.137 1050.3 544.035 1072.75 544.058 L 1157.54 544.075 L 1469.4 544.198 C 1469.74 562.987 1469.27 583.122 1469.19 602.015 L 578.039 602.094 L 577.978 417.949 z" fill="rgb(254,254,254)" transform="translate(0,0)"></path>
<path d="M 1016.92 1558.17 C 1036.11 1554.56 1054.59 1567.21 1058.16 1586.41 C 1061.72 1605.61 1049.02 1624.06 1029.82 1627.58 C 1010.68 1631.09 992.306 1618.44 988.751 1599.31 C 985.196 1580.17 997.797 1561.77 1016.92 1558.17 z" fill="rgb(254,254,254)" transform="translate(0,0)"></path>
<metadata><recraft-signature>{"signed_by": "recraft", "signature_b64": "zNlBbHpW5Qg0zViAxkODrucPNiJhfkNMRQkoBji8y3ga6q434a2jFYJaZz2Yp6llV10e+pbI42P04QQyctD+DA==", "signing_algo": "Ed25519", "generation_timestamp": 1777287737, "identifier": "02996ffd-f747-4a70-83a4-eb89eaf88ce2"}</recraft-signature></metadata></svg>